<svg xmlns="http://www.w3.org/2000/svg" width="1200" height="260" viewBox="0 0 1200 260">
  <defs>
    <linearGradient id="g" x1="0" y1="0" x2="1" y2="1">
      <stop offset="0" stop-color="#BE5103" stop-opacity=".22"/>
      <stop offset="1" stop-color="#BE5103" stop-opacity=".02"/>
    </linearGradient>
  </defs>
  <rect width="1200" height="260" fill="url(#g)"/>
  <g fill="none" stroke="#BE5103" stroke-opacity=".35" stroke-width="2">
    <path d="M90 210c80-60 140-140 220-140 120 0 160 120 280 120 140 0 190-140 320-140 110 0 150 90 250 140"/>
    <path d="M120 238c70-40 150-120 230-120 120 0 160 90 270 90 140 0 210-120 330-120 100 0 160 70 240 120"/>
  </g>
  <g fill="#BE5103" fill-opacity=".18">
    <circle cx="140" cy="190" r="18"/>
    <circle cx="260" cy="150" r="10"/>
    <circle cx="420" cy="200" r="14"/>
    <circle cx="760" cy="150" r="12"/>
    <circle cx="960" cy="200" r="16"/>
    <circle cx="1070" cy="180" r="10"/>
  </g>
</svg>